<svg width="100" height="100" viewBox="0 0 100 100" fill="none" xmlns="http://www.w3.org/2000/svg">
<path d="M-3.85677e-06 3.68146e-06H100V100H-3.85677e-06V3.68146e-06Z" fill="white"/>
<path d="M34 59.4687V63H17.2881V61.2343C18.1525 60.278 18.9449 59.4687 19.5932 58.7331C20.2415 57.9973 20.8898 57.2616 21.4661 56.5995C22.6186 55.3488 23.7712 53.8039 24.9957 52.0382C25.4279 51.3761 25.8602 50.7139 26.2203 49.9782C26.5805 49.3161 26.8686 48.654 27.2288 47.9183C27.8051 46.5941 28.0212 45.3433 28.0212 44.0927C28.0212 42.7684 27.589 41.7384 26.7246 40.782C25.8602 39.8992 24.7796 39.4578 23.411 39.4578C22.4025 39.4578 21.5381 39.6785 20.8178 40.1199C20.6017 40.267 20.3856 40.3406 20.1695 40.4878C19.9534 40.6349 19.7373 40.8556 19.4491 41.0763C19.161 41.297 18.8008 41.6649 18.4407 42.0327C18.0805 42.4005 17.5763 42.8419 17 43.4306V38.7221C17.4322 38.2807 17.8644 37.9864 18.3686 37.6921C18.8008 37.3978 19.233 37.1036 19.7373 36.8828C20.8178 36.2943 22.1144 36 23.6271 36C25.8602 36 27.8051 36.8093 29.3177 38.3542C30.9025 39.8992 31.6948 41.8856 31.6948 44.1662C31.6948 45.8584 31.2626 47.624 30.4703 49.4633C30.0381 50.3461 29.678 51.1554 29.2458 51.8175C28.8856 52.4796 28.4534 53.0681 28.0932 53.5831C27.661 54.2453 27.2288 54.9074 26.7966 55.4959C26.3644 56.0846 25.9322 56.7467 25.4279 57.3352C25.1398 57.703 24.9237 58.0709 24.6356 58.4387C24.3474 58.8065 24.0593 59.1745 23.7712 59.5423H34V59.4687Z" fill="#DD2127"/>
<path d="M51 50.1254V53.4361H47.6429V63H44.0714V53.4361H33V51.5968L45.6429 36H47.6429V50.1254H51ZM38.2857 50.1254H44.0714V42.9155L38.2857 50.1254Z" fill="#DD2127"/>
<path d="M65 36H84L71.3334 63L68.0159 61.6172L78.3453 39.4933H65V36Z" fill="#DD2127"/>
<path d="M60 29H56V71H60V29Z" fill="#323234"/>
</svg>
