<svg width="512" height="512" viewBox="0 0 512 512" fill="none" xmlns="http://www.w3.org/2000/svg">
<circle cx="256" cy="256" r="256" fill="#DD2127"/>
<path fill-rule="evenodd" clip-rule="evenodd" d="M214.683 508.683C228.133 510.866 241.934 512 256 512C384.866 512 491.493 416.783 509.365 292.865L383.5 167L383 167.507V423.5H130.493L130 424L214.683 508.683Z" fill="#911418" fill-opacity="0.42"/>
<path d="M130 423.5V88H304.5L383 166.5V423.5H130Z" fill="white"/>
<path d="M383 166.5L304.5 88V166.5H383Z" fill="#D9D9D9"/>
<rect x="165" y="186" width="28" height="28" rx="5" fill="#CACACA"/>
<rect x="165" y="231" width="28" height="28" rx="5" fill="#CACACA"/>
<rect x="165" y="276" width="28" height="28" rx="5" fill="#CACACA"/>
<rect x="165" y="321" width="28" height="28" rx="5" fill="#CACACA"/>
<rect x="213" y="192" width="134" height="14" rx="5" fill="#CACACA"/>
<rect x="213" y="237" width="134" height="14" rx="5" fill="#CACACA"/>
<rect x="213" y="282" width="134" height="14" rx="5" fill="#CACACA"/>
<rect x="213" y="327" width="134" height="14" rx="5" fill="#CACACA"/>
</svg>
