<svg width="1080" height="1080" viewBox="0 0 1080 1080" fill="none" xmlns="http://www.w3.org/2000/svg">
<rect width="1080" height="1080" rx="163" fill="#FFDDDD"/>
<path fill-rule="evenodd" clip-rule="evenodd" d="M271 149C259.954 149 251 157.954 251 169V678H169C157.954 678 149 686.954 149 698V825C149 836.046 157.954 845 169 845H251V911C251 922.046 259.954 931 271 931H775C786.046 931 795 922.046 795 911V169C795 157.954 786.046 149 775 149H271Z" fill="#323234"/>
<rect x="183" y="710" width="339" height="101" rx="20" fill="#FFDDDD"/>
<circle cx="778" cy="799" r="117" fill="#FFDDDD" stroke="#323234" stroke-width="30"/>
<path d="M256.773 772.262C256.063 774.007 255.126 775.496 253.958 776.682C248.634 782.17 239.79 783.117 233.811 780.087C224.545 775.395 221.306 763.594 224.249 753.433C225.653 748.573 228.604 744.559 233.181 742.07C236.864 740.071 241.368 739.85 245.512 740.664C248.549 741.258 251.456 742.764 253.814 745.135C255.012 746.32 255.998 747.828 256.773 749.639L269.012 741.103C266.679 736.632 263.135 733.009 258.378 730.216C253.62 727.438 248.001 726.05 241.529 726.05C236.093 726.05 231.237 727.049 226.967 729.064C218.382 733.094 212.386 739.748 209.292 747.944C206.025 756.58 206.304 765.216 209.435 773.328C212.69 781.76 218.749 788.771 227.207 792.904C231.382 794.935 235.962 795.969 240.948 795.969C252.163 795.969 265.489 790.398 269.785 779.933L256.773 772.262Z" fill="#323234"/>
<path d="M327.077 781.39H293.672V726.441H277.75V795.377H327.077V781.39Z" fill="#323234"/>
<path d="M349.7 779.935H371.159L376.497 795.377H392.812L367.662 726.441H353.291L328.139 795.377H344.456L349.7 779.935ZM360.478 744.593L368.535 768.961H352.223L360.478 744.593Z" fill="#323234"/>
<path d="M415.534 726.441H399.609V795.377H415.534V726.441Z" fill="#323234"/>
<path d="M444.668 754.11L459.621 784.117H468.155L483.108 754.11V795.377H499.042V726.441H481.855L463.888 762.457L446.022 726.441H428.739V795.377H444.668V754.11Z" fill="#323234"/>
<path d="M778.002 709.998C768.604 709.998 761 717.618 761 727V812.007C761 821.387 768.604 829.007 778.002 829.007C787.384 829.007 795.004 821.387 795.004 812.007V727C795.004 717.618 787.384 709.998 778.002 709.998Z" fill="#323234"/>
<path d="M778.002 846.009C768.604 846.009 761 853.613 761 863.01C761 872.393 768.604 880.012 778.002 880.012C787.384 880.012 795.004 872.393 795.004 863.01C795.004 853.613 787.384 846.009 778.002 846.009Z" fill="#323234"/>
<path d="M879.994 200.008C851.884 200.008 828.988 222.885 828.988 251.005V557.003C828.988 559.645 829.616 562.253 830.784 564.607L864.787 632.612C867.665 638.37 873.559 642.01 879.994 642.01C886.445 642.01 892.32 638.369 895.198 632.612L929.202 564.607C930.387 562.253 930.997 559.645 930.997 557.003V251.005C930.997 222.885 908.12 200.008 879.994 200.008ZM879.994 234.003C889.374 234.003 896.994 241.631 896.994 251.005V284.998H862.992V251.005C862.992 241.631 870.628 234.003 879.994 234.003ZM879.994 586.993L862.992 552.989V319.001H896.994V552.989L879.994 586.993Z" fill="#323234"/>
<path d="M353.002 353.003H607.988C617.386 353.003 624.99 345.391 624.99 336.001C624.99 326.621 617.386 319.001 607.988 319.001H353.002C343.613 319.001 336 326.621 336 336.001C336 345.392 343.613 353.003 353.002 353.003Z" fill="#FFDDDD"/>
<path d="M353.002 404.008H692.995C702.393 404.008 709.997 396.389 709.997 387.007C709.997 377.617 702.393 370.005 692.995 370.005H353.002C343.613 370.005 336 377.617 336 387.007C336 396.387 343.613 404.008 353.002 404.008Z" fill="#FFDDDD"/>
<path d="M353.002 455.003H692.995C702.393 455.003 709.997 447.391 709.997 438.01C709.997 428.612 702.393 421.008 692.995 421.008H353.002C343.613 421.008 336 428.612 336 438.01C336 447.391 343.613 455.003 353.002 455.003Z" fill="#FFDDDD"/>
<path d="M353.002 506H692.995C702.393 506 709.997 498.396 709.997 489.007C709.997 479.617 702.393 472.005 692.995 472.005H353.002C343.613 472.005 336 479.617 336 489.007C336 498.396 343.613 506 353.002 506Z" fill="#FFDDDD"/>
<path d="M709.997 540.002C709.997 530.619 702.393 523 692.995 523H353.002C343.613 523 336 530.619 336 540.002C336 549.399 343.613 557.003 353.002 557.003H692.995C702.393 557.003 709.997 549.399 709.997 540.002Z" fill="#FFDDDD"/>
<path d="M199.998 574.005C199.998 583.386 207.611 591.005 217 591.005C226.389 591.005 233.998 583.386 233.998 574.005C233.998 564.623 226.391 557.003 217 557.003C207.609 557.003 199.998 564.623 199.998 574.005Z" fill="#323234"/>
<path d="M182.998 302C192.387 302 199.998 294.396 199.998 284.998C199.998 275.617 192.387 268.005 182.998 268.005C173.613 268.005 166 275.617 166 284.998C166 294.396 173.613 302 182.998 302Z" fill="#323234"/>
<path d="M913.995 659.012C904.613 659.012 896.994 666.614 896.994 676.012C896.994 685.394 904.613 692.996 913.995 692.996C923.378 692.996 930.997 685.392 930.997 676.012C930.997 666.614 923.378 659.012 913.995 659.012Z" fill="#323234"/>
<path d="M845.99 183.006C855.388 183.006 862.992 175.387 862.992 166.006C862.992 156.617 855.388 149.005 845.99 149.005C836.608 149.005 828.988 156.617 828.988 166.006C828.988 175.387 836.609 183.006 845.99 183.006Z" fill="#323234"/>
<path d="M191.502 438.01C214.935 438.01 234.002 418.943 234.002 395.507C234.002 372.07 214.935 353.003 191.502 353.003C168.066 353.003 149 372.07 149 395.507C149 418.943 168.066 438.01 191.502 438.01ZM191.502 387.007C196.187 387.007 199.998 390.816 199.998 395.507C199.998 400.188 196.189 404.007 191.502 404.007C186.815 404.007 183.002 400.188 183.002 395.507C183.002 390.816 186.817 387.007 191.502 387.007Z" fill="#323234"/>
</svg>
