<svg width="1080" height="1080" viewBox="0 0 1080 1080" fill="none" xmlns="http://www.w3.org/2000/svg">
<rect width="1080" height="1080" rx="163" fill="#FFDDDD"/>
<path d="M446.177 220.64C396.115 264.949 304.747 345.821 243.138 400.355C181.606 454.812 131.156 499.663 131.001 499.973C130.768 500.592 172.616 548 173.469 548C173.779 548 205.01 520.578 242.905 486.959C280.801 453.417 360.312 383.081 419.441 330.715C478.648 278.273 529.95 232.879 533.515 229.858L539.87 224.203L722.605 386.102C823.195 475.107 905.806 547.923 906.193 547.923C906.658 547.923 916.345 537.233 927.815 524.219C943.004 506.944 948.506 500.283 947.964 499.508C947.576 498.966 856.131 417.862 744.847 319.251C566.219 161.226 542.04 140.078 539.87 140.001C537.545 139.923 528.555 147.747 446.177 220.64Z" fill="#323234"/>
<path d="M254 268V345L256.55 342.671C258.945 340.343 355.455 252.942 355.764 252.786C355.764 252.709 356.15 238.815 356.459 221.816L357 191H305.461H254V268Z" fill="#323234"/>
<path d="M507.545 307.701C489.269 323.988 424.682 381.306 364.122 434.979L254 532.629V716.528C254 892.98 254.077 900.581 255.471 903.528C257.253 907.484 261.202 911.362 264.764 912.603C266.933 913.379 286.913 913.612 358.934 913.612H450.315L450.703 831.008C451.09 754.61 451.167 748.25 452.406 745.923C454.188 742.666 458.602 739.098 462.241 738.012C464.41 737.392 486.636 737.159 541.774 737.159C614.492 737.159 618.519 737.237 621.54 738.633C625.954 740.649 630.058 745.768 631.065 750.5C631.607 753.059 631.917 780.904 631.917 834.111V913.999H721.982C819.636 913.999 816.306 914.154 821.96 909.811C823.431 908.725 825.29 906.321 826.219 904.459L827.845 901.124L827.923 716.915L828 532.784L803.683 511.067C781.302 491.056 544.717 281.252 542.084 279.08C541.077 278.305 535.656 282.803 507.545 307.701Z" fill="#323234"/>
</svg>
