<svg width="100" height="100" viewBox="0 0 100 100" fill="none" xmlns="http://www.w3.org/2000/svg">
<circle cx="50" cy="50" r="50" fill="url(#paint0_radial_5_5)"/>
<circle cx="50" cy="50" r="50" fill="url(#paint1_radial_5_5)"/>
<path d="M50.0019 24C42.9407 24 42.0545 24.0309 39.2811 24.1571C36.5132 24.2838 34.6238 24.722 32.9706 25.365C31.2606 26.0291 29.81 26.9174 28.3648 28.3631C26.9185 29.8083 26.0302 31.2589 25.3639 32.9684C24.7193 34.6221 24.2806 36.512 24.156 39.2788C24.0325 42.0521 24 42.9388 24 50C24 57.0612 24.0314 57.9446 24.1571 60.718C24.2844 63.4859 24.7226 65.3752 25.365 67.0284C26.0296 68.7384 26.918 70.189 28.3637 71.6342C29.8084 73.0804 31.259 73.9709 32.9679 74.635C34.6222 75.278 36.5121 75.7162 39.2795 75.8429C42.0529 75.9691 42.9385 76 49.9992 76C57.061 76 57.9444 75.9691 60.7178 75.8429C63.4857 75.7162 65.3773 75.278 67.0315 74.635C68.741 73.9709 70.1895 73.0804 71.6341 71.6342C73.0804 70.189 73.9687 68.7384 74.635 67.0289C75.2742 65.3752 75.7129 63.4853 75.8429 60.7185C75.9675 57.9452 76 57.0612 76 50C76 42.9388 75.9675 42.0527 75.8429 39.2793C75.7129 36.5114 75.2742 34.6221 74.635 32.9689C73.9687 31.2589 73.0804 29.8083 71.6341 28.3631C70.1879 26.9169 68.7416 26.0285 67.0299 25.365C65.3724 24.722 63.482 24.2838 60.714 24.1571C57.9406 24.0309 57.0577 24 49.9943 24H50.0019ZM47.6695 28.6854C48.3617 28.6843 49.1341 28.6854 50.0019 28.6854C56.944 28.6854 57.7668 28.7103 60.5082 28.8349C63.0432 28.9508 64.419 29.3744 65.3356 29.7303C66.5489 30.2015 67.414 30.7649 68.3234 31.6749C69.2334 32.5849 69.7968 33.4515 70.2691 34.6649C70.625 35.5803 71.0491 36.9561 71.1645 39.4911C71.2891 42.232 71.3162 43.0553 71.3162 49.994C71.3162 56.9328 71.2891 57.7561 71.1645 60.497C71.0486 63.032 70.625 64.4078 70.2691 65.3232C69.7978 66.5365 69.2334 67.4005 68.3234 68.31C67.4134 69.22 66.5494 69.7833 65.3356 70.2545C64.4201 70.612 63.0432 71.0345 60.5082 71.1505C57.7673 71.275 56.944 71.3021 50.0019 71.3021C43.0593 71.3021 42.2365 71.275 39.4956 71.1505C36.9606 71.0335 35.5847 70.6099 34.6677 70.254C33.4543 69.7828 32.5877 69.2194 31.6777 68.3094C30.7677 67.3994 30.2043 66.5349 29.732 65.321C29.3761 64.4056 28.952 63.0298 28.8366 60.4948C28.712 57.754 28.6871 56.9306 28.6871 49.9875C28.6871 43.0445 28.712 42.2255 28.8366 39.4846C28.9525 36.9496 29.3761 35.5738 29.732 34.6573C30.2032 33.444 30.7677 32.5773 31.6777 31.6673C32.5877 30.7573 33.4543 30.194 34.6677 29.7216C35.5842 29.3641 36.9606 28.9416 39.4956 28.8252C41.8941 28.7168 42.8237 28.6843 47.6695 28.6789V28.6854ZM63.8806 33.0025C63.2635 33.0025 62.6602 33.1855 62.1471 33.5284C61.634 33.8713 61.2341 34.3586 60.998 34.9288C60.7619 35.4989 60.7001 36.1263 60.8206 36.7316C60.9411 37.3368 61.2384 37.8928 61.6748 38.3291C62.1113 38.7654 62.6673 39.0624 63.2726 39.1827C63.8779 39.3029 64.5053 39.241 65.0754 39.0047C65.6455 38.7684 66.1327 38.3683 66.4754 37.8551C66.8181 37.3419 67.0009 36.7385 67.0007 36.1214C67.0007 34.3989 65.6031 33.0014 63.8806 33.0014V33.0025ZM50.0019 36.6479C42.6281 36.6479 36.6497 42.6263 36.6497 50C36.6497 57.3737 42.6281 63.3494 50.0019 63.3494C57.3757 63.3494 63.3525 57.3737 63.3525 50C63.3525 42.6263 57.3751 36.6479 50.0014 36.6479H50.0019ZM50.0019 41.3333C54.7881 41.3333 58.6687 45.2133 58.6687 50C58.6687 54.7862 54.7881 58.6667 50.0019 58.6667C45.2151 58.6667 41.3351 54.7862 41.3351 50C41.3351 45.2133 45.2151 41.3333 50.0019 41.3333V41.3333Z" fill="white"/>
<defs>
<radialGradient id="paint0_radial_5_5" cx="0" cy="0" r="1" gradientUnits="userSpaceOnUse" gradientTransform="translate(26.5626 107.702) rotate(-90) scale(99.1074 92.1777)">
<stop stop-color="#FFDD55"/>
<stop offset="0.1" stop-color="#FFDD55"/>
<stop offset="0.5" stop-color="#FF543E"/>
<stop offset="1" stop-color="#C837AB"/>
</radialGradient>
<radialGradient id="paint1_radial_5_5" cx="0" cy="0" r="1" gradientUnits="userSpaceOnUse" gradientTransform="translate(-16.7505 7.20383) rotate(78.6806) scale(44.3014 182.612)">
<stop stop-color="#3771C8"/>
<stop offset="0.128" stop-color="#3771C8"/>
<stop offset="1" stop-color="#6600FF" stop-opacity="0"/>
</radialGradient>
</defs>
</svg>
