<svg width="108" height="35" viewBox="0 0 108 35" fill="none" xmlns="http://www.w3.org/2000/svg">
<g clip-path="url(#clip0_1_17)">
<path d="M14.1286 25.0169V27.8905H0.239467V26.4537C0.957869 25.6755 1.6164 25.0169 2.1552 24.4183C2.69401 23.8196 3.23281 23.2209 3.71174 22.6821C4.66961 21.6644 5.62748 20.4072 6.64522 18.9704C7.00442 18.4316 7.36362 17.8928 7.66295 17.2941C7.96229 16.7553 8.20175 16.2165 8.50109 15.6179C8.98002 14.5403 9.15962 13.5225 9.15962 12.5048C9.15962 11.4272 8.80042 10.589 8.08202 9.81078C7.36362 9.09237 6.46562 8.73317 5.32815 8.73317C4.49001 8.73317 3.77161 8.91277 3.17294 9.27197C2.99334 9.39171 2.81374 9.45157 2.63414 9.57131C2.45454 9.69104 2.27494 9.87064 2.03547 10.0502C1.796 10.2298 1.49667 10.5292 1.19734 10.8285C0.898002 11.1278 0.478934 11.487 0 11.966V8.13451C0.359201 7.7753 0.718401 7.53584 1.13747 7.29637C1.49667 7.0569 1.85587 6.81744 2.27494 6.63784C3.17294 6.1589 4.25054 5.91943 5.50775 5.91943C7.36362 5.91943 8.98002 6.57797 10.2372 7.83517C11.5543 9.09237 12.2128 10.7088 12.2128 12.5646C12.2128 13.9416 11.8536 15.3784 11.1951 16.8751C10.8359 17.5935 10.5366 18.252 10.1774 18.7908C9.87802 19.3296 9.51882 19.8085 9.21949 20.2276C8.86029 20.7664 8.50109 21.3052 8.14188 21.7841C7.78268 22.2631 7.42348 22.8019 7.00442 23.2808C6.76495 23.5801 6.58535 23.8795 6.34588 24.1788C6.10641 24.4781 5.86695 24.7775 5.62748 25.0768H14.1286V25.0169Z" fill="#DD2127"/>
<path d="M27.8379 17.4139V20.1079H25.0242V27.8905H22.0308V20.1079H12.7515V18.6112L23.3479 5.91943H25.0242V17.4139H27.8379ZM17.1816 17.4139H22.0308V11.5469L17.1816 17.4139Z" fill="#DD2127"/>
<path d="M39.2137 5.80127H54.3002L44.2426 28.0119L41.6084 26.8744L49.8102 8.67488H39.2137V5.80127Z" fill="#DD2127"/>
<path d="M74.4129 5.86084V15.9185H72.976V11.4883H67.4683V15.9185H66.0315V5.86084H67.4683V10.1712H72.976V5.86084H74.4129Z" fill="#323234"/>
<path d="M86.1475 7.23696C87.1653 8.25469 87.7041 9.45203 87.7041 10.8888C87.7041 12.3256 87.1653 13.523 86.1475 14.5407C85.1298 15.4986 83.8726 16.0374 82.3759 16.0374C80.8793 16.0374 79.6221 15.5584 78.6043 14.6006C77.5866 13.6427 77.1077 12.3855 77.1077 10.9487C77.1077 9.5119 77.5866 8.25469 78.6043 7.29683C79.6221 6.33896 80.8793 5.80015 82.3759 5.80015C83.8726 5.74029 85.1298 6.21922 86.1475 7.23696ZM85.1298 13.5828C85.9081 12.8046 86.2673 11.9664 86.2673 10.8888C86.2673 9.8711 85.9081 8.9731 85.1298 8.19483C84.4114 7.47643 83.5134 7.05736 82.4358 7.05736C81.3582 7.05736 80.4602 7.41656 79.7418 8.19483C79.0234 8.91323 78.6043 9.81123 78.6043 10.8888C78.6043 11.9664 78.9635 12.8046 79.6819 13.5828C80.4003 14.3012 81.3582 14.7203 82.4358 14.7203C83.4535 14.6604 84.3515 14.3012 85.1298 13.5828Z" fill="#323234"/>
<path d="M99.7369 5.86084V15.9185H98.3001V8.25551L95.0673 12.2067L91.8345 8.25551V15.9185H90.5175V5.86084H91.7747L95.1871 9.99165L98.5995 5.86084H99.7369Z" fill="#323234"/>
<path d="M108 14.6014V15.9185H102.073V5.86084H107.88V7.17791H103.51V10.2311H107.76V11.5482H103.51V14.6613H108V14.6014Z" fill="#323234"/>
<path d="M61.0632 24.6586L63.1586 27.8914H61.4823L59.7461 25.1974C59.5665 24.9579 59.3869 24.7184 59.2672 24.479C59.0876 24.2395 58.9679 24.0599 58.7883 23.8803C58.5488 23.581 58.1297 23.4014 57.5909 23.4014H56.5133V27.8914H55.0765V17.8337H57.7705C58.3093 17.8337 58.7883 17.8936 59.2073 18.0133C59.6264 18.1331 59.9856 18.3127 60.3448 18.5521C60.6441 18.7916 60.8836 19.0909 61.0632 19.4501C61.2428 19.8093 61.3027 20.2284 61.3027 20.6475C61.3027 21.3659 61.0632 21.9047 60.6441 22.3238C60.4047 22.5632 60.1053 22.8027 59.806 22.9823C59.8659 23.0422 59.9257 23.1619 60.0455 23.2218C60.1053 23.2816 60.1652 23.4014 60.2849 23.5211C60.4047 23.7606 60.5843 23.9402 60.704 24.1198C60.8237 24.2395 60.9435 24.4191 61.0632 24.6586ZM59.3271 21.6652C59.5067 21.5455 59.6264 21.3659 59.6863 21.1863C59.7461 21.0067 59.806 20.8271 59.806 20.5277C59.806 20.0488 59.6264 19.6896 59.3271 19.4501C58.9679 19.1508 58.4291 19.0311 57.7705 19.0311H56.5133V22.0244H57.7107C58.0699 22.0244 58.3692 21.9645 58.6685 21.9047C58.9679 21.9047 59.1475 21.8448 59.3271 21.6652Z" fill="#323234"/>
<path d="M71.0621 26.5743V27.8914H65.1353V17.8337H70.9423V19.1508H66.5721V22.204H70.8226V23.5211H66.5721V26.6342H71.0621V26.5743Z" fill="#323234"/>
<path d="M78.0052 23.2817C78.4242 23.7607 78.6038 24.3593 78.6038 25.1975C78.6038 25.9757 78.3045 26.6343 77.7058 27.1731C77.1072 27.7119 76.3888 28.0112 75.6105 28.0112C75.0118 28.0112 74.473 27.8915 73.9941 27.7119C73.7546 27.5921 73.575 27.5323 73.3954 27.4125C73.2158 27.2928 73.0362 27.1731 72.8566 27.0533V25.3771C73.0961 25.5567 73.3356 25.7363 73.5152 25.856C73.6948 25.9757 73.8744 26.0955 73.9941 26.1553C74.1138 26.2152 74.2336 26.3349 74.3533 26.3349C74.473 26.3948 74.5329 26.4547 74.6526 26.4547C74.952 26.5744 75.3112 26.6941 75.6105 26.6941C76.0894 26.6941 76.5085 26.5744 76.8078 26.2751C77.1072 25.9757 77.2868 25.6165 77.2868 25.1975C77.2868 24.958 77.2269 24.7784 77.167 24.5988C77.1072 24.4192 76.9874 24.2995 76.8677 24.1797C76.6881 24.06 76.5085 23.9403 76.2092 23.7607C75.9697 23.6409 75.6105 23.5212 75.2513 23.3416C74.473 23.0423 73.8744 22.7429 73.4553 22.3239C73.2158 22.0844 73.0961 21.8449 72.9764 21.5456C72.8566 21.2463 72.7968 20.8871 72.7968 20.5279C72.7968 19.7496 73.0961 19.091 73.6948 18.5522C74.2934 18.0134 74.952 17.7141 75.7901 17.7141C76.3888 17.7141 76.8677 17.774 77.3466 17.9536C77.5861 18.0134 77.7657 18.0733 77.8854 18.193C78.065 18.2529 78.1848 18.3726 78.3045 18.4325V20.0489C78.1249 19.9292 77.9453 19.8693 77.8256 19.7496C77.7058 19.6897 77.5861 19.6298 77.4664 19.57C77.3466 19.5101 77.2868 19.4502 77.167 19.4502C77.1072 19.3904 76.9874 19.3904 76.9276 19.3305C76.6282 19.1509 76.269 19.091 75.85 19.091C75.371 19.091 75.0118 19.2108 74.7125 19.5101C74.4132 19.8094 74.2336 20.1687 74.2336 20.468C74.2336 20.7075 74.2934 20.8871 74.3533 21.0068C74.4132 21.1265 74.473 21.2463 74.5928 21.366C74.8322 21.6055 75.3112 21.8449 76.0296 22.0844C76.5085 22.264 76.9276 22.4436 77.2868 22.6232C77.5262 22.8028 77.8256 23.0423 78.0052 23.2817Z" fill="#323234"/>
<path d="M89.3791 25.376V26.9326C89.0797 27.1122 88.7804 27.2918 88.4811 27.4115C88.1817 27.5312 87.8824 27.651 87.5831 27.7108C87.2837 27.8306 86.9844 27.8904 86.6851 27.9503C86.3857 28.0102 86.0864 28.0102 85.8469 28.0102C84.2904 28.0102 82.9733 27.5312 81.9556 26.5734C80.9378 25.6155 80.399 24.3583 80.399 22.8616C80.399 21.4248 80.9378 20.1676 81.9556 19.2098C82.4944 18.7308 83.0332 18.3716 83.6917 18.1322C84.3503 17.8927 85.0088 17.7729 85.7871 17.7729C86.3259 17.7729 86.8647 17.8328 87.4633 18.0124C87.7627 18.0723 88.062 18.192 88.3613 18.3118C88.6607 18.4315 88.96 18.5512 89.2593 18.7308V20.2275C88.7804 19.988 88.4212 19.7486 88.1219 19.6288C87.8225 19.5091 87.5232 19.3894 87.2837 19.3295C86.7449 19.1499 86.2061 19.09 85.6673 19.09C84.5897 19.09 83.6917 19.4492 82.9733 20.1676C82.2549 20.886 81.8957 21.784 81.8957 22.8616C81.8957 23.9991 82.2549 24.8971 82.9733 25.6155C83.6917 26.3339 84.6496 26.6931 85.7272 26.6931C86.3259 26.6931 86.9245 26.5734 87.4633 26.3938C87.5831 26.3339 87.7627 26.274 87.8824 26.2142C88.0021 26.1543 88.1817 26.0944 88.3015 26.0346C88.4811 25.9747 88.6008 25.855 88.7804 25.7951C88.96 25.6155 89.1995 25.5556 89.3791 25.376Z" fill="#323234"/>
<path d="M99.7976 17.8337V23.4612C99.7976 24.1198 99.6779 24.7184 99.4983 25.2572C99.3187 25.796 99.0193 26.275 98.6003 26.694C97.822 27.5322 96.8042 28.0111 95.547 28.0111C94.2898 28.0111 93.2721 27.592 92.4938 26.7539C91.7156 25.9158 91.2965 24.8382 91.2965 23.5211V17.8337H92.7333V23.4612C92.7333 24 92.7932 24.4191 92.9129 24.7783C93.0326 25.1375 93.2122 25.4967 93.5116 25.7362C94.0504 26.275 94.7089 26.5743 95.6069 26.5743C96.4451 26.5743 97.1635 26.275 97.6424 25.7362C97.8819 25.4368 98.0615 25.1375 98.1812 24.7184C98.3009 24.3592 98.3608 23.8803 98.3608 23.3415V17.8337H99.7976Z" fill="#323234"/>
<path d="M108 26.5743V27.8914H102.073V17.8337H107.88V19.1508H103.51V22.204H107.76V23.5211H103.51V26.6342H108V26.5743Z" fill="#323234"/>
<path d="M35.4424 0.472412H31.7905V34.5366H35.4424V0.472412Z" fill="#323234"/>
</g>
<defs>
<clipPath id="clip0_1_17">
<rect width="108" height="35" fill="white"/>
</clipPath>
</defs>
</svg>
