<svg width="1080" height="1080" viewBox="0 0 1080 1080" fill="none" xmlns="http://www.w3.org/2000/svg">
<rect width="1080" height="1080" rx="163" fill="#FFDDDD"/>
<path fill-rule="evenodd" clip-rule="evenodd" d="M524.083 912L236.5 758.635V624.951L419.2 730.532L524.083 615.347V912ZM557.917 911.966V614.163L664.898 727.217L845.5 627.183V758.635L557.917 911.966ZM208.114 569.557L135 527.487L236.5 415.82L135 320.351L429.959 168L538.733 248.656L651.229 168L947 322.245L845.669 415.955L947 532.391L871.146 574.359V574.325L671.427 684.911L558.153 565.161L809.061 431.173L541.034 283.32L272.972 431.173L524.083 564.315V565.127L412.535 687.616L236.5 585.891L231.087 582.78L208.114 569.489V569.557Z" fill="#323234"/>
</svg>
