<svg width="1080" height="1080" viewBox="0 0 1080 1080" fill="none" xmlns="http://www.w3.org/2000/svg">
<rect width="1080" height="1080" rx="163" fill="#FFDDDD"/>
<g clip-path="url(#clip0_106_4)">
<path fill-rule="evenodd" clip-rule="evenodd" d="M817.227 853.089C823.787 850.348 829.734 846.321 834.717 841.245L888.538 787.366C893.779 782.279 897.916 776.165 900.692 769.406C905.033 759.531 906.196 748.548 904.018 737.981C901.84 727.415 896.43 717.789 888.538 710.441L857.094 678.256C826.1 678.256 770.543 672.526 740.514 687.01C729.475 692.592 718.989 699.209 709.198 706.772C661.293 742.241 606.314 759.557 553.328 755.051C379.647 740.76 301.776 524.793 426.073 396.05C475.586 344.552 549.534 318.353 619.817 337.6C675.825 352.921 703.411 385.879 749.066 413.816C761.174 422.298 775.51 427.022 790.284 427.399H792.213C798.643 427.849 827.065 428.236 863.589 428.622C861.403 423.279 859.023 417.936 856.58 412.4C854.136 406.864 850.664 399.526 847.513 393.861C846.613 391.994 845.391 390.128 844.427 388.196L875.035 358.135L875.742 357.427C880.571 352.323 884.409 346.363 887.059 339.853C889.63 333.383 890.918 326.474 890.853 319.512C890.914 312.529 889.625 305.6 887.059 299.106C884.457 292.601 880.662 286.641 875.871 281.532C875.871 281.532 875.871 281.017 875.292 281.017L820.956 227.267C815.996 222.021 810.012 217.851 803.375 215.016C796.738 212.181 789.59 210.742 782.375 210.788C775.098 210.779 767.896 212.269 761.219 215.165C754.689 217.942 748.817 222.066 743.986 227.267L709.713 261.642C693.317 253.353 676.067 246.878 658.27 242.33V199.394C658.256 192.227 656.881 185.127 654.219 178.473C651.497 171.956 647.445 166.08 642.323 161.222C637.238 156.098 631.24 151.972 624.64 149.055C618.162 146.428 611.246 145.052 604.256 145H527.093C519.909 144.805 512.765 146.12 506.119 148.858C499.474 151.597 493.476 155.699 488.511 160.9C483.581 165.949 479.692 171.92 477.065 178.473C474.391 185.123 473.016 192.225 473.014 199.394V247.995C454.688 255.14 440.22 262.092 422.729 270.847L392.636 240.206C387.391 235.198 381.206 231.281 374.438 228.683C361.342 223.617 346.83 223.617 333.735 228.683C327.257 231.211 321.304 234.922 316.18 239.626C297.982 257.844 279.977 276.254 261.844 294.6C256.727 299.662 252.681 305.705 249.948 312.367C247.105 318.985 245.639 326.115 245.639 333.32C245.639 340.524 247.105 347.654 249.948 354.273C252.845 360.719 256.974 366.536 262.101 371.395L296.503 405.834C288.224 422.248 281.756 439.516 277.212 457.332H234.323C227.163 457.346 220.071 458.722 213.424 461.387C206.727 464.079 200.661 468.134 195.612 473.296C170.213 500.332 163.139 618.132 213.424 638.474C220.076 641.121 227.164 642.496 234.323 642.529H283.128C290.266 660.811 297.211 675.359 305.956 692.868L275.862 722.93C270.778 727.999 266.659 733.954 263.709 740.503C260.867 747.111 259.402 754.23 259.402 761.424C259.402 768.618 260.867 775.737 263.709 782.345C266.488 788.989 270.628 794.976 275.862 799.918L329.683 853.797C334.749 859.003 340.806 863.14 347.495 865.964C354.085 868.849 361.201 870.339 368.394 870.339C375.587 870.339 382.702 868.849 389.292 865.964C395.762 863.147 401.584 859.027 406.397 853.862L441.442 819.423C456.81 825.86 476.165 835.773 492.562 838.734V881.542C492.577 888.709 493.952 895.809 496.613 902.462C499.319 908.989 503.373 914.868 508.509 919.714L509.024 920.293C514.065 925.142 519.921 929.064 526.321 931.88C532.775 934.514 539.672 935.89 546.641 935.936H623.804C630.963 935.909 638.052 934.533 644.703 931.88C651.315 929.06 657.353 925.045 662.514 920.036C667.6 915.036 671.625 909.058 674.346 902.462C677.02 895.812 678.395 888.71 678.397 881.542V832.683C696.788 825.474 711.127 818.65 728.682 809.831L758.518 840.215C763.571 845.318 769.523 849.443 776.073 852.381C782.674 855.226 789.785 856.693 796.971 856.693C804.158 856.693 811.269 855.226 817.87 852.381L817.227 853.282V853.089ZM634.671 665.252C605.349 683.92 571.59 694.606 525.807 677.161C489.797 663.45 460.218 632.101 443.692 591.869C587.537 657.077 638.98 469.884 468.642 464.284C520.598 401.65 597.247 402.165 659.106 448.127C688.428 469.82 704.89 475.613 721.673 480.312C731.515 482.85 741.675 483.934 751.831 483.531C761.541 483.531 825.843 483.531 867.576 482.952V599.465C828.994 600.044 768.164 600.623 759.611 601.203C748.064 601.378 736.62 603.421 725.724 607.253C711.835 612.532 699.103 618.905 672.931 637.83C660.971 646.52 647.21 657.142 634.35 665.188L634.671 665.252Z" fill="black"/>
</g>
<defs>
<clipPath id="clip0_106_4">
<rect width="729" height="791" fill="white" transform="translate(176 145)"/>
</clipPath>
</defs>
</svg>
