<svg width="1080" height="1080" viewBox="0 0 1080 1080" fill="none" xmlns="http://www.w3.org/2000/svg">
<rect width="1080" height="1080" rx="163" fill="#FFDDDD"/>
<rect x="105" y="675.053" width="868" height="231.606" rx="80" fill="#323234"/>
<line x1="809.385" y1="791.721" x2="867.452" y2="791.721" stroke="#FFDDDD" stroke-width="40" stroke-linecap="round"/>
<rect x="105" y="400.673" width="868" height="231.606" rx="80" fill="#323234"/>
<line x1="809.385" y1="517.341" x2="867.452" y2="517.341" stroke="#FFDDDD" stroke-width="40" stroke-linecap="round"/>
<circle cx="540" cy="336" r="213" fill="#323234" stroke="#FFDDDD" stroke-width="40"/>
<path fill-rule="evenodd" clip-rule="evenodd" d="M539.178 226.447C545.326 226.447 550.826 229.221 554.495 233.587C555.152 234.097 555.784 234.654 556.388 235.257L617.825 296.694C625.635 304.504 625.635 317.168 617.825 324.978C610.014 332.789 597.351 332.789 589.54 324.978L559.178 294.615L559.178 437.01C559.178 448.055 550.223 457.01 539.178 457.01C528.132 457.01 519.178 448.055 519.178 437.01L519.178 297.389L491.589 324.978C483.779 332.789 471.115 332.789 463.305 324.978C455.494 317.168 455.494 304.504 463.305 296.694L520.37 239.628C523.158 231.94 530.527 226.447 539.178 226.447Z" fill="#FFDDDD"/>
</svg>
