<svg width="1080" height="1080" viewBox="0 0 1080 1080" fill="none" xmlns="http://www.w3.org/2000/svg">
<rect width="1080" height="1080" rx="163" fill="#FFDDDD"/>
<path d="M637.007 722.866C574.43 722.866 511.844 699.047 464.206 651.401C368.914 556.109 368.914 401.057 464.206 305.773C559.498 210.473 714.559 210.49 809.826 305.773C905.109 401.057 905.109 556.109 809.826 651.401C762.171 699.039 699.585 722.866 637.007 722.866ZM637.007 285.653C587.581 285.653 538.154 304.472 500.525 342.101C425.268 417.358 425.268 539.816 500.525 615.082C575.791 690.331 698.241 690.314 773.498 615.082C848.747 539.816 848.756 417.358 773.498 342.101C735.861 304.463 686.434 285.653 637.007 285.653Z" fill="#323234"/>
<path d="M259.427 931.84C240.043 931.84 220.651 924.46 205.891 909.7C191.593 895.402 183.716 876.378 183.716 856.163C183.716 835.941 191.593 816.925 205.891 802.627L432.879 575.639C442.905 565.596 459.172 565.613 469.206 575.639C479.232 585.664 479.232 601.932 469.206 611.957L242.218 838.946C237.62 843.543 235.086 849.657 235.086 856.163C235.086 862.67 237.62 868.783 242.218 873.381C251.704 882.859 267.15 882.859 276.645 873.381L503.299 646.709C513.333 636.675 529.601 636.675 539.626 646.709C549.652 656.735 549.652 672.994 539.626 683.028L312.972 909.7C298.212 924.46 278.819 931.84 259.427 931.84Z" fill="#323234"/>
<path d="M704.166 402.966C699.277 402.966 694.328 401.57 689.953 398.651C662.35 380.26 627.804 377.306 597.564 390.74C584.584 396.476 569.43 390.637 563.668 377.683C557.914 364.712 563.762 349.541 576.724 343.779C623.12 323.179 676.117 327.691 718.429 355.894C730.236 363.753 733.429 379.704 725.57 391.51C720.621 398.942 712.462 402.966 704.166 402.966Z" fill="#323234"/>
<path d="M636.554 626.041C616.143 626.041 595.74 621.829 576.716 613.387C563.753 607.634 557.906 592.462 563.659 579.491C569.404 566.529 584.575 560.664 597.555 566.435C622.341 577.419 650.758 577.419 675.544 566.435C712.95 549.834 735.775 511.297 732.359 470.535C731.169 456.4 741.666 443.977 755.801 442.795C769.877 441.596 782.36 452.102 783.541 466.237C788.798 528.78 753.764 587.916 696.374 613.387C677.376 621.821 656.965 626.041 636.554 626.041Z" fill="#323234"/>
<path d="M263.674 681.076H209.401C195.214 681.076 183.716 669.578 183.716 655.391C183.716 641.204 195.214 629.706 209.401 629.706H263.674C277.86 629.706 289.359 641.204 289.359 655.391C289.359 669.578 277.86 681.076 263.674 681.076Z" fill="#323234"/>
<path d="M331.816 524.936H209.401C195.214 524.936 183.716 513.438 183.716 499.251C183.716 485.064 195.214 473.566 209.401 473.566H331.808C345.995 473.566 357.493 485.064 357.493 499.251C357.493 513.438 346.003 524.936 331.816 524.936Z" fill="#323234"/>
<path d="M344.796 368.796H209.401C195.214 368.796 183.716 357.298 183.716 343.111C183.716 328.924 195.214 317.426 209.401 317.426H344.796C358.983 317.426 370.481 328.924 370.481 343.111C370.481 357.298 358.983 368.796 344.796 368.796Z" fill="#323234"/>
<path d="M855.725 212.656H209.401C195.214 212.656 183.716 201.158 183.716 186.971C183.716 172.784 195.214 161.286 209.401 161.286H855.717C869.903 161.286 881.402 172.784 881.402 186.971C881.402 201.158 869.912 212.656 855.725 212.656Z" fill="#323234"/>
</svg>
