<?xml version="1.0" encoding="iso-8859-1"?>
<!-- Generator: Adobe Illustrator 19.0.0, SVG Export Plug-In . SVG Version: 6.00 Build 0)  -->
<svg version="1.1" id="Capa_1" xmlns="http://www.w3.org/2000/svg" xmlns:xlink="http://www.w3.org/1999/xlink" x="0px" y="0px"
	 viewBox="0 0 512 512" style="enable-background:new 0 0 512 512;" xml:space="preserve">
<path style="fill:#0D70B2;" d="M467,106h-90c-8.401,0-15,6.599-15,15v30c0,8.399-6.599,15-15,15H167c-8.401,0-15-6.601-15-15v-30
	c0-8.401-6.599-15-15-15H45c-24.902,0-45,20.099-45,45v300c0,24.899,20.098,45,45,45h422c24.902,0,45-20.101,45-45V151
	C512,126.099,491.902,106,467,106z"/>
<path style="fill:#0059AA;" d="M512,151v300c0,24.899-20.098,45-45,45H257V166h90c8.401,0,15-6.601,15-15v-30
	c0-8.401,6.599-15,15-15h90C491.902,106,512,126.099,512,151z"/>
<path style="fill:#E1E4FB;" d="M45,466c-8.262,0-15-6.724-15-15V151c0-8.276,6.738-15,15-15h77v15c0,24.814,20.186,45,45,45h180
	c24.814,0,45-20.186,45-45v-15h75c8.262,0,15,6.724,15,15v300c0,8.276-6.738,15-15,15H45z"/>
<path style="fill:#C5C9F7;" d="M467,136h-75v15c0,24.814-20.186,45-45,45h-90v270h210c8.262,0,15-6.724,15-15V151
	C482,142.724,475.262,136,467,136z"/>
<path style="fill:#FEA832;" d="M443.299,295l-57.598-8.401l-25.803-52.2c-5.398-11.1-21.299-11.1-26.697,0l-25.803,52.2l-50.398,7.5
	L249.8,295c-12.301,1.8-17.102,17.1-8.401,25.8L257,336.1l26.1,25.201l-9.899,57.299c-2.102,12.299,10.8,21.601,21.899,15.901
	l51.6-27.001l51.299,27.001c11.104,5.7,24.001-3.602,21.899-15.901l-9.899-57.299l41.7-40.501
	C460.401,312.1,455.6,296.8,443.299,295z"/>
<g>
	<path style="fill:#17ACE8;" d="M197,286H75c-19.773,0-19.854-30,0-30h122C216.773,256,216.854,286,197,286z"/>
	<path style="fill:#17ACE8;" d="M197,346H75c-19.773,0-19.854-30,0-30h122C216.773,316,216.854,346,197,346z"/>
	<path style="fill:#17ACE8;" d="M197,406H75c-19.773,0-19.854-30,0-30h122C216.773,376,216.854,406,197,406z"/>
</g>
<path style="fill:#1689FC;" d="M347,76h-16.501C323.6,41.8,293.299,16,257,16s-66.599,25.8-73.499,60H167c-24.902,0-45,20.099-45,45
	v30c0,24.899,20.098,45,45,45h180c24.902,0,45-20.101,45-45v-30C392,96.099,371.902,76,347,76z"/>
<path style="fill:#E1E4FB;" d="M272,91c0,8.401-6.599,15-15,15s-15-6.599-15-15s6.599-15,15-15S272,82.599,272,91z"/>
<path style="fill:#136EF1;" d="M347,196h-90V16c36.299,0,66.599,25.8,73.499,60H347c24.902,0,45,20.099,45,45v30
	C392,175.899,371.902,196,347,196z"/>
<path style="fill:#FE9923;" d="M451.7,320.799L410,361.3l9.899,57.299c2.101,12.3-10.797,21.601-21.9,15.901l-51.299-27l-51.599,27
	c-11.1,5.7-24.001-3.602-21.899-15.901L283.1,361.3L257,336.099v-42.001l50.398-7.5l25.803-52.2c5.398-11.1,21.299-11.1,26.697,0
	l25.803,52.2L443.299,295C455.6,296.8,460.401,312.1,451.7,320.799z"/>
<path style="fill:#C5C9F7;" d="M257,106V76c8.401,0,15,6.599,15,15S265.401,106,257,106z"/>
<g>
</g>
<g>
</g>
<g>
</g>
<g>
</g>
<g>
</g>
<g>
</g>
<g>
</g>
<g>
</g>
<g>
</g>
<g>
</g>
<g>
</g>
<g>
</g>
<g>
</g>
<g>
</g>
<g>
</g>
</svg>
