<?xml version="1.0" encoding="iso-8859-1"?>
<!-- Generator: Adobe Illustrator 19.0.0, SVG Export Plug-In . SVG Version: 6.00 Build 0)  -->
<svg version="1.1" id="Capa_1" xmlns="http://www.w3.org/2000/svg" xmlns:xlink="http://www.w3.org/1999/xlink" x="0px" y="0px"
	 viewBox="0 0 512 512" style="enable-background:new 0 0 512 512;" xml:space="preserve">
<path style="fill:#CAE6FF;" d="M377.51,42.374v375.761c0,13.717-11.122,24.839-24.839,24.839H79.332
	c-23.406,0-42.374-18.967-42.374-42.374V99.516c0-4.058,1.573-7.876,4.429-10.761l84.306-84.276C128.579,1.593,132.426,0,136.514,0
	h198.622C358.542,0,377.51,18.967,377.51,42.374z"/>
<path style="fill:#98CDF4;" d="M377.51,42.374v375.761c0,13.717-11.122,24.839-24.839,24.839H207.234V0h127.902
	C358.542,0,377.51,18.967,377.51,42.374z"/>
<g>
	<path style="fill:#00A5FF;" d="M151.544,98.825c0,0.11-0.02,0.23-0.02,0.351c0,0.11,0.02,0.23,0.02,0.341
		c0,8.306-6.733,15.03-15.03,15.03H36.958v-15.03c0-4.058,1.573-7.876,4.429-10.761l84.306-84.276
		C128.579,1.593,132.426,0,136.514,0h15.03V98.825z"/>
	<path style="fill:#00A5FF;" d="M302.32,178.538H112.145c-8.3,0-15.03-6.729-15.03-15.03s6.729-15.03,15.03-15.03h190.176
		c8.3,0,15.03,6.729,15.03,15.03S310.622,178.538,302.32,178.538z"/>
	<path style="fill:#00A5FF;" d="M302.32,236.514H112.145c-8.3,0-15.03-6.729-15.03-15.03s6.729-15.03,15.03-15.03h190.176
		c8.3,0,15.03,6.729,15.03,15.03S310.622,236.514,302.32,236.514z"/>
	<path style="fill:#00A5FF;" d="M302.32,296.806H112.145c-8.3,0-15.03-6.729-15.03-15.03c0-8.3,6.729-15.03,15.03-15.03h190.176
		c8.3,0,15.03,6.729,15.03,15.03C317.351,290.076,310.622,296.806,302.32,296.806z"/>
	<path style="fill:#00A5FF;" d="M188.613,356.637h-76.468c-8.3,0-15.03-6.729-15.03-15.03c0-8.3,6.729-15.03,15.03-15.03h76.468
		c8.3,0,15.03,6.729,15.03,15.03C203.643,349.907,196.913,356.637,188.613,356.637z"/>
</g>
<path style="fill:#6B77E8;" d="M475.042,414.468c0,53.776-43.746,97.532-97.532,97.532s-97.532-43.756-97.532-97.532
	c0-53.786,43.746-97.542,97.532-97.542S475.042,360.682,475.042,414.468z"/>
<path style="fill:#4B5BE4;" d="M475.042,414.468c0,53.776-43.746,97.532-97.532,97.532V316.925
	C431.296,316.925,475.042,360.682,475.042,414.468z"/>
<g>
	<path style="fill:#FFB64C;" d="M392.539,376.403v38.065c0,8.296-6.733,15.03-15.03,15.03c-8.296,0-15.03-6.733-15.03-15.03v-38.065
		c0-8.296,6.733-15.03,15.03-15.03C385.806,361.373,392.539,368.106,392.539,376.403z"/>
	<path style="fill:#FFB64C;" d="M392.539,454.246c0,0.491-0.03,0.982-0.08,1.473c-0.05,0.491-0.12,0.982-0.22,1.463
		c-0.09,0.481-0.22,0.962-0.361,1.423c-0.14,0.471-0.311,0.932-0.491,1.393c-0.19,0.451-0.401,0.892-0.631,1.323
		s-0.481,0.862-0.751,1.262c-0.271,0.411-0.571,0.812-0.882,1.192c-0.311,0.381-0.641,0.751-0.992,1.092
		c-0.341,0.351-0.711,0.681-1.092,1.002c-0.381,0.301-0.782,0.601-1.192,0.872c-0.401,0.271-0.832,0.521-1.263,0.751
		c-0.431,0.23-0.882,0.441-1.333,0.631c-0.451,0.19-0.912,0.351-1.383,0.501c-0.471,0.14-0.942,0.261-1.423,0.351
		c-0.481,0.1-0.972,0.18-1.463,0.22c-0.491,0.05-0.982,0.08-1.473,0.08c-0.491,0-0.992-0.03-1.483-0.08
		c-0.481-0.04-0.972-0.12-1.453-0.22c-0.481-0.09-0.962-0.21-1.433-0.351c-0.471-0.15-0.932-0.311-1.383-0.501
		c-0.451-0.19-0.902-0.401-1.333-0.631s-0.852-0.481-1.263-0.751c-0.411-0.271-0.812-0.571-1.192-0.872
		c-0.381-0.321-0.741-0.651-1.092-1.002c-0.351-0.341-0.681-0.711-0.992-1.092c-0.311-0.381-0.601-0.782-0.872-1.192
		c-0.271-0.401-0.531-0.832-0.762-1.262s-0.441-0.872-0.621-1.323c-0.19-0.461-0.361-0.922-0.501-1.393
		c-0.14-0.461-0.261-0.942-0.361-1.423c-0.1-0.481-0.17-0.972-0.22-1.463c-0.05-0.491-0.07-0.982-0.07-1.473
		c0-0.491,0.02-0.992,0.07-1.483c0.05-0.481,0.12-0.972,0.22-1.453s0.22-0.962,0.361-1.433c0.14-0.461,0.311-0.932,0.501-1.383
		c0.18-0.451,0.391-0.902,0.621-1.333c0.23-0.431,0.491-0.852,0.762-1.263c0.271-0.411,0.561-0.812,0.872-1.182
		c0.311-0.381,0.641-0.751,0.992-1.102c0.351-0.351,0.711-0.681,1.092-0.992c0.381-0.311,0.782-0.601,1.192-0.872
		c0.411-0.271,0.832-0.531,1.263-0.762c0.431-0.22,0.882-0.441,1.333-0.621c0.451-0.19,0.912-0.361,1.383-0.501
		c0.471-0.14,0.952-0.261,1.433-0.361c0.481-0.09,0.972-0.17,1.453-0.22c0.491-0.05,0.982-0.07,1.483-0.07
		c0.491,0,0.982,0.02,1.473,0.07c0.491,0.05,0.982,0.13,1.463,0.22c0.481,0.1,0.952,0.22,1.423,0.361
		c0.471,0.14,0.932,0.311,1.383,0.501c0.451,0.18,0.902,0.401,1.333,0.621c0.431,0.23,0.862,0.491,1.263,0.762
		c0.411,0.271,0.812,0.561,1.192,0.872c0.381,0.311,0.751,0.641,1.092,0.992c0.351,0.351,0.681,0.721,0.992,1.102
		c0.311,0.371,0.611,0.771,0.882,1.182c0.271,0.411,0.521,0.832,0.751,1.263c0.23,0.431,0.441,0.882,0.631,1.333
		c0.18,0.451,0.351,0.922,0.491,1.383c0.14,0.471,0.271,0.952,0.361,1.433c0.1,0.481,0.17,0.972,0.22,1.453
		C392.509,453.254,392.539,453.755,392.539,454.246z"/>
</g>
<g>
	<path style="fill:#FFA81F;" d="M392.459,452.763c0.05,0.491,0.08,0.992,0.08,1.483c0,0.491-0.03,0.982-0.08,1.473
		c-0.05,0.491-0.12,0.982-0.22,1.463c-0.09,0.481-0.22,0.962-0.361,1.423c-0.14,0.471-0.311,0.932-0.491,1.393
		c-0.19,0.451-0.401,0.892-0.631,1.323s-0.481,0.862-0.751,1.262c-0.271,0.411-0.571,0.812-0.882,1.192
		c-0.311,0.381-0.641,0.751-0.992,1.092c-0.341,0.351-0.711,0.681-1.092,1.002c-0.381,0.301-0.782,0.601-1.192,0.872
		c-0.401,0.271-0.832,0.521-1.263,0.751c-0.431,0.23-0.882,0.441-1.333,0.631c-0.451,0.19-0.912,0.351-1.383,0.501
		c-0.471,0.14-0.942,0.261-1.423,0.351c-0.481,0.1-0.972,0.18-1.463,0.22c-0.491,0.05-0.982,0.08-1.473,0.08v-30.059
		c0.491,0,0.982,0.02,1.473,0.07c0.491,0.05,0.982,0.13,1.463,0.22c0.481,0.1,0.952,0.22,1.423,0.361
		c0.471,0.14,0.932,0.311,1.383,0.501c0.451,0.18,0.902,0.401,1.333,0.621c0.431,0.23,0.862,0.491,1.263,0.762
		c0.411,0.271,0.812,0.561,1.192,0.872c0.381,0.311,0.751,0.641,1.092,0.992c0.351,0.351,0.681,0.721,0.992,1.102
		c0.311,0.371,0.611,0.771,0.882,1.182c0.271,0.411,0.521,0.832,0.751,1.263c0.23,0.431,0.441,0.882,0.631,1.333
		c0.18,0.451,0.351,0.922,0.491,1.383c0.14,0.471,0.271,0.952,0.361,1.433C392.339,451.791,392.409,452.282,392.459,452.763z"/>
	<path style="fill:#FFA81F;" d="M392.539,376.403v38.065c0,8.296-6.733,15.03-15.03,15.03v-68.124
		C385.806,361.373,392.539,368.106,392.539,376.403z"/>
</g>
<g>
</g>
<g>
</g>
<g>
</g>
<g>
</g>
<g>
</g>
<g>
</g>
<g>
</g>
<g>
</g>
<g>
</g>
<g>
</g>
<g>
</g>
<g>
</g>
<g>
</g>
<g>
</g>
<g>
</g>
</svg>
