<?xml version="1.0" encoding="iso-8859-1"?>
<!-- Generator: Adobe Illustrator 19.0.0, SVG Export Plug-In . SVG Version: 6.00 Build 0)  -->
<svg version="1.1" id="Capa_1" xmlns="http://www.w3.org/2000/svg" xmlns:xlink="http://www.w3.org/1999/xlink" x="0px" y="0px"
	 viewBox="0 0 512 512" style="enable-background:new 0 0 512 512;" xml:space="preserve">
<path style="fill:#CCEFFF;" d="M512,386l-90,90H0V66h512V386z"/>
<polygon style="fill:#ACE3FC;" points="422,386 422,476 256,476 256,66 512,66 512,386 "/>
<rect y="66" style="fill:#EA596E;" width="512" height="105"/>
<rect x="256.5" y="66" style="fill:#DD2E44;" width="255.5" height="105"/>
<rect x="392" y="36" style="fill:#CCEFFF;" width="30" height="90"/>
<rect x="90" y="36" style="fill:#E6F9FF;" width="30" height="90"/>
<path style="fill:#FFFFFF;" d="M256,409.165l-116-17.228V221.608l116,17.228l116-17.228v170.329L256,409.165z"/>
<path style="fill:#E6F9FF;" d="M256,409.165v-170.33l116-17.228v170.329L256,409.165z"/>
<polygon style="fill:#FFDC40;" points="372,361.607 256,378.835 140,361.608 140,391.937 256,409.165 372,391.937 "/>
<polygon style="fill:#FFAB15;" points="372,361.607 256,378.835 256,409.165 372,391.937 "/>
<g>
</g>
<g>
</g>
<g>
</g>
<g>
</g>
<g>
</g>
<g>
</g>
<g>
</g>
<g>
</g>
<g>
</g>
<g>
</g>
<g>
</g>
<g>
</g>
<g>
</g>
<g>
</g>
<g>
</g>
</svg>
