<?xml version="1.0" encoding="iso-8859-1"?>
<!-- Generator: Adobe Illustrator 19.0.0, SVG Export Plug-In . SVG Version: 6.00 Build 0)  -->
<svg version="1.1" id="Capa_1" xmlns="http://www.w3.org/2000/svg" xmlns:xlink="http://www.w3.org/1999/xlink" x="0px" y="0px"
	 viewBox="0 0 476.475 476.475" style="enable-background:new 0 0 476.475 476.475;" xml:space="preserve">
<g>
	<g>
		<path style="fill:#EDB288;" d="M458.283,298.32c9.198,11.165,7.807,27.63-3.135,37.094l-74.188,61.649
			c-27.862,23.371-63.454,35.484-99.788,33.959l-107.624-5.224c-12.057-0.607-24.143,0.094-36.049,2.09l-44.931,8.359h-3.135
			V303.544h2.09l46.498-22.465c23.521-12.209,49.792-18.147,76.278-17.241l71.053,3.135h1.567
			c13.287-0.096,24.528,9.797,26.122,22.988c1.62,13.856-7.722,26.616-21.42,29.257l-52.767,9.927
			c-8.501,1.634-14.067,9.849-12.434,18.35c0.351,1.824,1.023,3.571,1.985,5.16l5.747,9.927c2.675,4.918,8.006,7.788,13.584,7.314
			l51.2-1.567c19.24-0.448,37.792-7.244,52.767-19.331l68.441-55.38c11.692-9.356,28.75-7.487,38.139,4.18L458.283,298.32z"/>
		<path style="fill:#FEDB41;" d="M320.356,0.001c66.941-0.289,121.441,53.744,121.729,120.685s-53.744,121.441-120.685,121.73
			S199.96,188.671,199.672,121.731c-0.001-0.174-0.001-0.348-0.001-0.521C199.382,54.557,253.181,0.291,319.833,0.002
			C320.007,0.002,320.182,0.001,320.356,0.001z"/>
		<path style="fill:#00ACEA;" d="M94.659,436.246v19.331c0,11.542-9.356,20.898-20.898,20.898H33.01
			c-11.542,0-20.898-9.356-20.898-20.898V303.022c0-11.542,9.356-20.898,20.898-20.898h40.751c11.542,0,20.898,9.356,20.898,20.898
			l0,0V436.246z"/>
	</g>
	<path style="fill:#3BB54A;" d="M372.601,177.111c-1.493-5.574-7.223-8.882-12.797-7.389c-0.088,0.024-0.176,0.048-0.264,0.074
		l-6.792,2.09c-6.921,2.076-14.364,1.518-20.898-1.567c-6.946-3.559-14.662-5.353-22.465-5.225h-3.135
		c2.13-5.543,3.534-11.338,4.18-17.241l0,0v-8.882h24.555c5.771,0,10.449-4.678,10.449-10.449c0-5.771-4.678-10.449-10.449-10.449
		h-25.6c-0.618-4.745-1.49-9.454-2.612-14.106c-1.366-5.113-2.069-10.381-2.09-15.673c-0.037-2.525,0.499-5.026,1.567-7.314
		c0.574-2.405,1.847-4.586,3.657-6.269c3.878-3.846,9.169-5.925,14.629-5.747c14.629,0,17.763,7.837,19.331,14.106
		c1.296,5.384,6.567,8.821,12.016,7.837c5.67-1.302,9.338-6.804,8.359-12.539c-4.18-19.331-18.808-30.302-39.706-30.302
		c-5.552-0.028-11.055,1.037-16.196,3.135c-4.919,2.03-9.365,5.054-13.061,8.882c-3.877,3.655-6.908,8.113-8.882,13.061
		c-1.669,4.88-2.551,9.994-2.612,15.151c0.16,6.864,1.035,13.693,2.612,20.376c0.522,3.135,1.567,6.269,2.09,9.404h-21.42
		c-5.771,0-10.449,4.678-10.449,10.449c0,5.771,4.678,10.449,10.449,10.449h22.465v6.792l0,0
		c-0.592,6.592-2.937,12.906-6.792,18.286l-5.224,7.314c-2.514,3.165-2.724,7.582-0.522,10.971c1.913,3.623,5.857,5.699,9.927,5.224
		l19.331-1.567c5.538-0.722,11.166,0.186,16.196,2.612c6.743,3.658,14.272,5.63,21.943,5.747c4.939-0.145,9.846-0.846,14.629-2.09
		l6.792-2.09C371.277,188.423,374.309,182.592,372.601,177.111z"/>
</g>
<g>
</g>
<g>
</g>
<g>
</g>
<g>
</g>
<g>
</g>
<g>
</g>
<g>
</g>
<g>
</g>
<g>
</g>
<g>
</g>
<g>
</g>
<g>
</g>
<g>
</g>
<g>
</g>
<g>
</g>
</svg>
