<?xml version="1.0" encoding="iso-8859-1"?>
<!-- Generator: Adobe Illustrator 19.0.0, SVG Export Plug-In . SVG Version: 6.00 Build 0)  -->
<svg version="1.1" id="Capa_1" xmlns="http://www.w3.org/2000/svg" xmlns:xlink="http://www.w3.org/1999/xlink" x="0px" y="0px"
	 viewBox="0 0 480 480" style="enable-background:new 0 0 480 480;" xml:space="preserve">
<path style="fill:#91DC5A;" d="M104,144H8v64h16h432h16v-64h-96H104z"/>
<path style="fill:#B6EB92;" d="M88,448h304l64-240H24L88,448z M224,368l90.512-90.512L224,368l-45.256-45.256L224,368z"/>
<g>
	<path style="fill:#91DC5A;" d="M280,32c-8.837,0-16,7.163-16,16s7.163,16,16,16s16-7.163,16-16S288.837,32,280,32z"/>
	<path style="fill:#91DC5A;" d="M216,48c0-8.837-7.163-16-16-16c-8.837,0-16,7.163-16,16s7.163,16,16,16
		C208.837,64,216,56.837,216,48z"/>
</g>
<g>
	<path style="fill:#231F20;" d="M320,424H112c-4.418,0-8-3.582-8-8s3.582-8,8-8h208c4.418,0,8,3.582,8,8S324.418,424,320,424z"/>
	<path style="fill:#231F20;" d="M368,424h-16c-4.418,0-8-3.582-8-8s3.582-8,8-8h16c4.418,0,8,3.582,8,8S372.418,424,368,424z"/>
	<path style="fill:#231F20;" d="M56,224h16v16H56V224z"/>
	<path style="fill:#231F20;" d="M472,136h-92.688L301.6,58.28c1.566-3.202,2.386-6.716,2.4-10.28c0-13.255-10.745-24-24-24
		s-24,10.745-24,24s10.745,24,24,24c3.564-0.014,7.078-0.834,10.28-2.4l66.4,66.4H123.312l66.4-66.4
		c3.204,1.567,6.721,2.387,10.288,2.4c13.255,0,24-10.745,24-24s-10.745-24-24-24c-13.255,0-24,10.745-24,24
		c0.014,3.564,0.834,7.078,2.4,10.28L100.688,136H8c-4.418,0-8,3.582-8,8v64c0,4.418,3.582,8,8,8h9.856l62.4,234.064
		c0.936,3.506,4.115,5.943,7.744,5.936h304c3.623-0.001,6.793-2.436,7.728-5.936L462.144,216H472c4.418,0,8-3.582,8-8v-64
		C480,139.582,476.418,136,472,136L472,136z M272,48c0-4.418,3.582-8,8-8s8,3.582,8,8s-3.582,8-8,8S272,52.418,272,48z M200,40
		c4.418,0,8,3.582,8,8s-3.582,8-8,8s-8-3.582-8-8S195.582,40,200,40z M385.848,440H94.152L34.4,216h411.2L385.848,440z M464,200H16
		v-48h448V200z"/>
	<path style="fill:#231F20;" d="M88,224h16v16H88V224z"/>
	<path style="fill:#231F20;" d="M120,224h16v16h-16V224z"/>
	<path style="fill:#231F20;" d="M152,224h16v16h-16V224z"/>
	<path style="fill:#231F20;" d="M184,224h16v16h-16V224z"/>
	<path style="fill:#231F20;" d="M216,224h16v16h-16V224z"/>
	<path style="fill:#231F20;" d="M248,224h16v16h-16V224z"/>
	<path style="fill:#231F20;" d="M280,224h16v16h-16V224z"/>
	<path style="fill:#231F20;" d="M312,224h16v16h-16V224z"/>
	<path style="fill:#231F20;" d="M344,224h16v16h-16V224z"/>
	<path style="fill:#231F20;" d="M376,224h16v16h-16V224z"/>
	<path style="fill:#231F20;" d="M408,224h16v16h-16V224z"/>
	<path style="fill:#231F20;" d="M218.344,373.656c3.124,3.123,8.188,3.123,11.312,0l90.512-90.504c3.126-3.126,3.126-8.194,0-11.32
		s-8.194-3.126-11.32,0L224,356.688l-39.6-39.6c-3.178-3.069-8.242-2.982-11.312,0.196c-2.994,3.1-2.994,8.015,0,11.116
		L218.344,373.656z"/>
</g>
<g>
</g>
<g>
</g>
<g>
</g>
<g>
</g>
<g>
</g>
<g>
</g>
<g>
</g>
<g>
</g>
<g>
</g>
<g>
</g>
<g>
</g>
<g>
</g>
<g>
</g>
<g>
</g>
<g>
</g>
</svg>
